HIERARCHY
ROOT root
{
	OFFSET	0	13.1	24.9
	CHANNELS 6  Xposition Yposition Zposition Xrotation Yrotation Zrotation
	JOINT spine_1
	{
		OFFSET	0	9.99999	0
		CHANNELS 3  Xrotation Yrotation Zrotation
		JOINT spine_2
		{
			OFFSET	0	112	-10
			CHANNELS 3  Xrotation Yrotation Zrotation
			JOINT spine_3
			{
				OFFSET	0	206.5	19.3
				CHANNELS 3  Xrotation Yrotation Zrotation
				JOINT spine_4
				{
					OFFSET	0	110.4	14.6
					CHANNELS 3  Xrotation Yrotation Zrotation
					JOINT neck_1
					{
						OFFSET	0	71.8	-50.3
						CHANNELS 3  Xrotation Yrotation Zrotation
						JOINT neck_2
						{
							OFFSET	0	86.2	-25.8
							CHANNELS 3  Xrotation Yrotation Zrotation
							JOINT head_ee
							{
								OFFSET	0	179.8	-8.7
								CHANNELS 3  Xrotation Yrotation Zrotation
								End Site
								{
									OFFSET	1	0	0
								}
							}
						}
					}
					JOINT left_clavicle
					{
						OFFSET	-43.2	22.4	-70.8
						CHANNELS 3  Xrotation Yrotation Zrotation
						JOINT left_shoulder
						{
							OFFSET	-93.9	-5.79999	48.7
							CHANNELS 3  Xrotation Yrotation Zrotation
							JOINT left_elbow
							{
								OFFSET	-291.4	-30.8	15.2
								CHANNELS 3  Xrotation Yrotation Zrotation
								JOINT left_lowarm_twist
								{
									OFFSET	-110.7	-3.89999	13.6
									CHANNELS 3  Xrotation Yrotation Zrotation
									JOINT left_hand
									{
										OFFSET	-110.7	-3.89999	13.6
										CHANNELS 3  Xrotation Yrotation Zrotation
										JOINT left_ee
										{
											OFFSET	-80.8	-5.10001	12.1
											CHANNELS 3  Xrotation Yrotation Zrotation
											End Site
											{
												OFFSET	1	0	0
											}
										}
									}
								}
							}
						}
					}
					JOINT right_clavicle
					{
						OFFSET	43.2	22.4	-70.8
						CHANNELS 3  Xrotation Yrotation Zrotation
						JOINT right_shoulder
						{
							OFFSET	93.9	-5.79999	48.7
							CHANNELS 3  Xrotation Yrotation Zrotation
							JOINT right_elbow
							{
								OFFSET	291.4	-30.8	15.2
								CHANNELS 3  Xrotation Yrotation Zrotation
								JOINT right_lowarm_twist
								{
									OFFSET	110.7	-3.89999	13.6
									CHANNELS 3  Xrotation Yrotation Zrotation
									JOINT right_hand
									{
										OFFSET	110.7	-3.89999	13.6
										CHANNELS 3  Xrotation Yrotation Zrotation
										JOINT right_ee
										{
											OFFSET	80.8	-5.10001	12.1
											CHANNELS 3  Xrotation Yrotation Zrotation
											End Site
											{
												OFFSET	1	0	0
											}
										}
									}
								}
							}
						}
					}
				}
			}
		}
	}
	JOINT left_hip
	{
		OFFSET	-82.8	-127.5	0.300001
		CHANNELS 3  Xrotation Yrotation Zrotation
		JOINT left_knee
		{
			OFFSET	-28.2	-396.7	2.2
			CHANNELS 3  Xrotation Yrotation Zrotation
			JOINT left_ankle
			{
				OFFSET	-11.7	-411.3	35.4
				CHANNELS 3  Xrotation Yrotation Zrotation
				JOINT left_toes
				{
					OFFSET	0	-60	-88.6
					CHANNELS 3  Xrotation Yrotation Zrotation
					JOINT left_foot_ee
					{
						OFFSET	-22.5	-16.5	-42.2
						CHANNELS 3  Xrotation Yrotation Zrotation
						End Site
						{
							OFFSET	1	0	0
						}
					}
				}
			}
		}
	}
	JOINT right_hip
	{
		OFFSET	82.8	-127.5	0.300001
		CHANNELS 3  Xrotation Yrotation Zrotation
		JOINT right_knee
		{
			OFFSET	28.2	-396.7	2.2
			CHANNELS 3  Xrotation Yrotation Zrotation
			JOINT right_ankle
			{
				OFFSET	11.7	-411.3	35.4
				CHANNELS 3  Xrotation Yrotation Zrotation
				JOINT right_toes
				{
					OFFSET	0	-60	-88.6
					CHANNELS 3  Xrotation Yrotation Zrotation
					JOINT right_foot_ee
					{
						OFFSET	22.5	-16.5	-42.2
						CHANNELS 3  Xrotation Yrotation Zrotation
						End Site
						{
							OFFSET	1	0	0
						}
					}
				}
			}
		}
	}
}
MOTION
Frames: 9
Frame Time: 0.02
2557.71 732.626 -1296.6 -5.59011 63.8081 0.379118 1.63266 0.65974 4.06976 1.64178 0.399657 4.10341 1.67115 -0.352321 4.10774 1.64773 0.300278 4.11187 -10.4803 14.6777 -1.12366 -10.806 28.4471 2.82884 -0.0 0.0 -0.0 -8.10722 19.1843 -10.0717 -0.68331 -16.2496 71.1415 2.17846 -47.1739 0.951247 37.3366 -0.218028 -4.68119 3.11176 -2.42907 20.3004 -0.0 0.0 -0.0 13.061 26.4818 -25.7605 -20.7276 41.546 -63.5656 0.680972 18.641 -0.111765 35.0588 0.117505 4.4079 0.586233 -17.0914 -10.5783 0.0 0.0 0.0 10.6346 22.3845 -2.89635 -35.5463 -0.208001 5.36479 8.81956 -18.6892 -1.40806 -40.1815 0.0 0.0 -0.0 0.0 -0.0 10.8355 7.50916 -2.25908 -1.13164 -0.0449391 -0.167848 17.0169 -3.88449 2.35865 1.56709 -0.0 -0.0 0.0 0.0 0.0 
2548.25 727.544 -1293.67 -3.64736 62.9039 -1.43759 1.60521 0.618691 4.11162 1.61454 0.356034 4.14259 1.64106 -0.404639 4.13813 1.61726 0.2534 4.15012 -9.03267 14.7014 -2.24362 -9.21128 29.1244 1.34599 -0.0 0.0 -0.0 -8.10484 18.647 -10.2548 -0.586308 -17.7851 71.0769 2.20534 -47.5238 0.971016 37.3903 -0.220531 -4.68759 3.12932 -3.98001 19.7746 -0.0 0.0 -0.0 12.6342 26.3815 -24.7892 -20.2653 42.0187 -64.4183 0.650946 17.8725 -0.102358 32.9797 0.0353151 4.15519 0.688154 -18.2605 -11.628 0.0 0.0 0.0 9.95507 38.6551 -5.55202 -22.8061 0.251766 3.46767 13.4804 -20.8293 -2.15166 -40.1382 0.0 0.0 -0.0 0.0 -0.0 9.45608 7.97894 -1.45559 -1.02153 -0.0407124 -0.151479 21.4239 0.161585 2.92837 1.30326 -0.0 -0.0 0.0 0.0 0.0 
2542.49 726.254 -1293.81 -1.92979 61.2373 -2.45514 1.38577 0.690123 4.12292 1.39513 0.426605 4.1584 1.42753 -0.353503 4.16523 1.40346 0.308166 4.16883 -8.20973 14.2908 -3.7742 -8.26759 29.3481 -0.500562 -0.0 0.0 -0.0 -8.11862 18.5025 -10.3269 -0.0192876 -18.7149 70.7104 2.17643 -47.1473 0.949759 38.767 -0.286688 -4.85072 3.20539 -6.73383 19.1247 -0.0 0.0 -0.0 12.1205 25.4088 -23.7222 -20.9672 42.6644 -64.4094 0.757389 20.5655 -0.137407 30.7162 -0.0436645 3.87691 0.739662 -19.9412 -12.53 0.0 0.0 0.0 14.4869 52.4449 -10.1916 -12.8371 0.312204 1.9412 21.1504 -20.1174 -3.22597 -39.2527 0.0 0.0 -0.0 0.0 -0.0 7.85931 9.51493 -1.80621 -0.193543 -0.0079211 -0.0286448 24.4201 4.56583 3.32717 -4.28672 0.0 0.0 0.0 0.0 0.0 
2538.65 724.889 -1292.6 -2.39392 60.2174 -1.63066 1.54615 0.636823 3.99728 1.55496 0.381387 4.02963 1.5827 -0.363136 4.03131 1.56014 0.277557 4.03809 -7.63984 13.8244 -3.83446 -7.63127 28.4847 -0.82874 -0.0 0.0 -0.0 -8.18521 18.9342 -10.2826 -0.505342 -19.5244 70.2879 2.20005 -47.4553 0.967114 37.2036 -0.211861 -4.66535 3.43755 -8.2038 20.1273 -0.0 0.0 -0.0 12.0672 25.0478 -23.6392 -21.2104 43.0748 -64.3062 0.709878 19.3744 -0.12118 28.5604 -0.108602 3.60921 0.614188 -22.2192 -12.5493 0.0 0.0 0.0 16.5433 61.4004 -12.6644 -8.90848 0.263013 1.34051 26.4097 -22.8826 -4.00533 -35.0337 0.0 0.0 -0.0 0.0 -0.0 7.85802 9.72168 -1.91152 -0.127454 -0.00522743 -0.0188605 25.5141 6.18168 3.47582 -7.23256 0.0 0.0 0.0 0.0 0.0 
2530.7 722.059 -1290.75 -2.38088 59.5076 -1.25188 1.69611 0.576156 3.92874 1.70464 0.325193 3.95738 1.72758 -0.395249 3.95101 1.70587 0.233194 3.96385 -7.50843 13.8958 -4.15206 -7.47776 28.8332 -1.16738 -0.0 0.0 -0.0 -8.34997 19.1611 -10.4641 -0.669757 -20.0277 70.1106 2.23299 -47.8791 0.991472 38.1404 -0.256089 -4.77667 3.58298 -9.39319 20.6246 -0.0 0.0 -0.0 11.8959 24.7772 -23.2763 -21.5138 43.4328 -64.6178 0.719238 19.6105 -0.124303 27.2056 -0.144235 3.43983 0.570104 -23.2775 -12.6453 0.0 0.0 0.0 21.2389 69.1413 -18.1889 -7.55663 0.236575 1.13475 32.6368 -25.0444 -4.84585 -31.9778 0.0 0.0 -0.0 0.0 -0.0 7.65318 9.70472 -2.14705 -0.388382 -0.0157971 -0.0575078 27.4406 7.7596 3.72095 -9.11937 0.0 0.0 0.0 0.0 0.0 
2525.84 722.89 -1285.72 -2.71472 57.9722 -0.916663 1.82788 0.598541 3.91898 1.83636 0.348152 3.94906 1.86055 -0.361933 3.94783 1.8389 0.265593 3.95546 -7.10332 13.4757 -4.68916 -7.01212 28.4089 -1.91218 -0.0 0.0 -0.0 -8.55668 20.3036 -10.3759 -0.671371 -20.4142 70.2837 2.25546 -48.1641 1.00817 37.7533 -0.237591 -4.73075 3.66694 -9.85715 21.0119 -0.0 0.0 -0.0 11.697 24.4408 -22.8571 -21.5784 43.6418 -64.7362 0.738132 20.0849 -0.130718 25.9859 -0.172879 3.28666 0.556413 -23.4165 -12.6112 0.0 0.0 0.0 27.9646 75.5994 -25.2222 -7.00979 0.224503 1.0517 35.9126 -26.0575 -5.25558 -29.4073 0.0 0.0 -0.0 0.0 -0.0 7.43512 10.5419 -1.57263 0.504353 0.0210964 0.0745209 29.3494 10.2261 3.97974 -10.1651 0.0 0.0 0.0 0.0 0.0 
2521.95 723.586 -1287.87 -2.24309 57.0718 -1.70924 1.84829 0.552081 4.00273 1.85715 0.29647 4.02969 1.87809 -0.426091 4.01807 1.85563 0.213301 4.03493 -6.96888 14.2824 -2.85229 -6.92134 28.5958 0.0743312 -0.0 0.0 -0.0 -8.3669 20.5868 -9.97926 -0.257202 -19.4888 69.8433 2.19137 -47.3425 0.960726 36.8527 -0.195766 -4.62348 3.73888 -10.1617 21.387 -0.0 0.0 -0.0 11.777 24.3049 -23.0531 -21.1617 43.8932 -65.6575 0.743507 20.2193 -0.13257 24.9155 -0.195325 3.15177 0.473714 -25.0654 -12.6811 0.0 0.0 0.0 47.5901 78.3129 -45.8575 -12.2317 0.30731 1.84843 31.6149 -27.1369 -4.83781 -25.1319 0.0 0.0 -0.0 0.0 -0.0 7.36313 11.1964 -1.03649 -1.94985 -0.0753589 -0.289731 29.5277 11.5011 4.02663 -13.4079 0.0 0.0 0.0 0.0 0.0 
2515.8 720.603 -1282.87 -1.43094 55.6195 -2.79041 1.79035 0.588334 4.03695 1.79935 0.330477 4.06614 1.82307 -0.402958 4.05961 1.80016 0.242691 4.07232 -6.76059 13.9283 -3.44648 -6.67668 28.3442 -0.655052 -0.0 0.0 -0.0 -8.57053 21.2166 -10.0614 -0.331904 -19.6093 70.0008 2.15536 -46.8694 0.934348 37.0934 -0.206777 -4.65221 3.84589 -10.8806 21.8165 -0.0 0.0 -0.0 11.7378 24.194 -22.9749 -21.8542 43.9005 -65.1099 0.76251 20.6928 -0.139211 24.0961 -0.210801 3.04825 0.41366 -25.2325 -12.3894 0.0 0.0 0.0 68.448 81.9137 -67.7123 -12.0401 0.305557 1.81909 36.0084 -26.9574 -5.31693 -22.9461 0.0 0.0 -0.0 0.0 -0.0 6.94302 11.438 -0.289374 -2.94449 -0.109987 -0.43845 32.4106 12.6597 4.36505 -11.8955 0.0 0.0 0.0 0.0 0.0 
2513.09 719.238 -1280.12 -1.80305 54.671 -2.44655 1.89356 0.669314 4.02516 1.90248 0.412042 4.05951 1.93177 -0.313588 4.06829 1.90883 0.332312 4.0668 -6.70686 14.0248 -2.77365 -6.6367 28.0383 0.0295455 -0.0 0.0 -0.0 -8.74138 21.8916 -10.0684 -0.136542 -19.7122 69.9152 2.13701 -46.625 0.920979 36.8209 -0.194319 -4.61967 3.96456 -11.4287 22.4101 -0.0 0.0 -0.0 11.6954 24.1925 -22.8782 -22.1357 43.9584 -65.2447 0.784744 21.243 -0.147168 23.631 -0.218927 2.98939 0.395386 -25.7881 -12.471 0.0 0.0 0.0 89.7788 81.7623 -89.3673 -14.3087 0.320011 2.16684 35.4748 -27.3618 -5.28402 -21.1726 0.0 0.0 -0.0 0.0 -0.0 7.26655 11.6601 -0.0312136 -3.0901 -0.114839 -0.460271 32.9006 13.8667 4.44824 -12.52 0.0 0.0 0.0 0.0 0.0 
